<svg width="44" height="22" viewBox="0 0 44 22" fill="none" xmlns="http://www.w3.org/2000/svg">
<rect width="44" height="22" rx="4" fill="#FFC71A"/>
<path d="M5.232 16V6.8H7.344L11.152 12.992H10.128L13.856 6.8H15.984L16.016 16H13.648L13.632 10.4H13.984L11.168 15.024H10.032L7.12 10.4H7.584V16H5.232ZM17.0264 16V6.8H21.3624C22.4184 6.8 23.3357 6.98667 24.1144 7.36C24.9037 7.73333 25.5117 8.26667 25.9384 8.96C26.3757 9.64267 26.5944 10.4587 26.5944 11.408C26.5944 12.3467 26.3757 13.1627 25.9384 13.856C25.5117 14.5387 24.9037 15.0667 24.1144 15.44C23.3357 15.8133 22.4184 16 21.3624 16H17.0264ZM19.5544 14.016H21.2824C21.8477 14.016 22.333 13.9147 22.7384 13.712C23.1544 13.5093 23.4744 13.216 23.6984 12.832C23.9224 12.4373 24.0344 11.9627 24.0344 11.408C24.0344 10.8427 23.9224 10.368 23.6984 9.984C23.4744 9.58933 23.1544 9.29067 22.7384 9.088C22.333 8.88533 21.8477 8.784 21.2824 8.784H19.5544V14.016ZM26.9457 16V6.8H31.6497C32.8657 6.8 33.7724 7.024 34.3697 7.472C34.9777 7.92 35.2817 8.50133 35.2817 9.216C35.2817 9.92 35.0257 10.4907 34.5137 10.928C34.0124 11.3653 33.3084 11.584 32.4017 11.584L32.6577 10.976C33.6071 10.976 34.3591 11.1947 34.9137 11.632C35.4684 12.0587 35.7457 12.672 35.7457 13.472C35.7457 14.2613 35.4204 14.88 34.7697 15.328C34.1191 15.776 33.1644 16 31.9057 16H26.9457ZM29.4417 14.224H31.7297C32.2097 14.224 32.5724 14.1387 32.8177 13.968C33.0737 13.7973 33.2017 13.5467 33.2017 13.216C33.2017 12.8747 33.0737 12.624 32.8177 12.464C32.5724 12.2933 32.2097 12.208 31.7297 12.208H29.1857V10.512H31.3297C31.7991 10.512 32.1511 10.432 32.3857 10.272C32.6311 10.112 32.7537 9.872 32.7537 9.552C32.7537 9.232 32.6311 8.992 32.3857 8.832C32.1511 8.66133 31.7991 8.576 31.3297 8.576H29.4417V14.224ZM36.037 16V6.8H38.565V16H36.037Z" fill="#101010"/>
</svg>
