<svg width="51" height="36" viewBox="0 0 51 36" fill="none" xmlns="http://www.w3.org/2000/svg">
<path d="M6.76754 30.8085L1.1589 8.56289C0.0631567 4.21681 3.34877 0 7.83086 0C11.6532 0 14.7429 3.11535 14.7114 6.93756L14.6123 18.9339C14.6095 19.2725 14.8832 19.5485 15.2219 19.5485C15.4021 19.5485 15.573 19.4688 15.6888 19.3308L24.7185 8.57141C25.7262 7.37068 27.2135 6.67724 28.781 6.67724C30.8276 6.67724 32.6915 7.85475 33.5705 9.70292L37.2535 17.4467C37.4824 17.928 37.9678 18.2346 38.5007 18.2346C39.1631 18.2346 39.7322 17.7644 39.8571 17.114L40.6963 12.7449C41.0635 10.833 42.7363 9.45102 44.6831 9.45102H45.5785C49.1696 9.45102 51.6553 13.0377 50.3946 16.4001L43.946 33.5996C43.4047 35.0434 42.0245 36 40.4825 36C39.126 36 37.8784 35.2575 37.2314 34.0653L29.7606 20.2989C29.5783 19.9629 29.2267 19.7536 28.8444 19.7536C28.5155 19.7536 28.206 19.9088 28.0092 20.1722L17.8343 33.7928C16.7966 35.1819 15.1643 36 13.4304 36C10.2825 36 7.53712 33.8609 6.76754 30.8085Z" fill="white"/>
</svg>
